<mxfile host="app.diagrams.net" modified="2022-09-22T19:29:35.855Z" agent="5.0 (Windows NT 10.0; Win64; x64) AppleWebKit/537.36 (KHTML, like Gecko) Chrome/105.0.0.0 Safari/537.36" etag="4nA27PwM7zgkF0ZqoPgb" version="20.3.6" type="github">
  <diagram id="C5RBs43oDa-KdzZeNtuy" name="Page-1">
    <mxGraphModel dx="857" dy="446" grid="1" gridSize="10" guides="1" tooltips="1" connect="1" arrows="1" fold="1" page="1" pageScale="1" pageWidth="827" pageHeight="1169" math="0" shadow="0">
      <root>
        <mxCell id="WIyWlLk6GJQsqaUBKTNV-0" />
        <mxCell id="WIyWlLk6GJQsqaUBKTNV-1" parent="WIyWlLk6GJQsqaUBKTNV-0" />
        <mxCell id="WIyWlLk6GJQsqaUBKTNV-3" value="Start" style="rounded=1;whiteSpace=wrap;html=1;fontSize=12;glass=0;strokeWidth=1;shadow=0;" parent="WIyWlLk6GJQsqaUBKTNV-1" vertex="1">
          <mxGeometry x="260" y="80" width="120" height="40" as="geometry" />
        </mxCell>
        <mxCell id="WIyWlLk6GJQsqaUBKTNV-11" value="end" style="rounded=1;whiteSpace=wrap;html=1;fontSize=12;glass=0;strokeWidth=1;shadow=0;" parent="WIyWlLk6GJQsqaUBKTNV-1" vertex="1">
          <mxGeometry x="150" y="520" width="60" height="40" as="geometry" />
        </mxCell>
        <mxCell id="NlaGBxxUGiSn0cIbaI4j-1" value="" style="endArrow=classic;html=1;rounded=0;" edge="1" parent="WIyWlLk6GJQsqaUBKTNV-1">
          <mxGeometry width="50" height="50" relative="1" as="geometry">
            <mxPoint x="220" y="140" as="sourcePoint" />
            <mxPoint x="280" y="160" as="targetPoint" />
            <Array as="points">
              <mxPoint x="280" y="140" />
            </Array>
          </mxGeometry>
        </mxCell>
        <mxCell id="NlaGBxxUGiSn0cIbaI4j-2" value="" style="endArrow=classic;html=1;rounded=0;" edge="1" parent="WIyWlLk6GJQsqaUBKTNV-1">
          <mxGeometry width="50" height="50" relative="1" as="geometry">
            <mxPoint x="280" y="140" as="sourcePoint" />
            <mxPoint x="350" y="160" as="targetPoint" />
            <Array as="points">
              <mxPoint x="350" y="140" />
            </Array>
          </mxGeometry>
        </mxCell>
        <mxCell id="NlaGBxxUGiSn0cIbaI4j-5" value="" style="endArrow=classic;html=1;rounded=0;" edge="1" parent="WIyWlLk6GJQsqaUBKTNV-1">
          <mxGeometry width="50" height="50" relative="1" as="geometry">
            <mxPoint x="350" y="140" as="sourcePoint" />
            <mxPoint x="430" y="160" as="targetPoint" />
            <Array as="points">
              <mxPoint x="430" y="140" />
            </Array>
          </mxGeometry>
        </mxCell>
        <mxCell id="NlaGBxxUGiSn0cIbaI4j-6" value="" style="endArrow=classic;html=1;rounded=0;entryX=0.5;entryY=0;entryDx=0;entryDy=0;" edge="1" parent="WIyWlLk6GJQsqaUBKTNV-1" target="NlaGBxxUGiSn0cIbaI4j-12">
          <mxGeometry width="50" height="50" relative="1" as="geometry">
            <mxPoint x="220" y="140" as="sourcePoint" />
            <mxPoint x="219.5" y="160" as="targetPoint" />
            <Array as="points">
              <mxPoint x="200" y="140" />
            </Array>
          </mxGeometry>
        </mxCell>
        <mxCell id="NlaGBxxUGiSn0cIbaI4j-9" value="Number A" style="shape=manualInput;whiteSpace=wrap;html=1;size=13;" vertex="1" parent="WIyWlLk6GJQsqaUBKTNV-1">
          <mxGeometry x="400" y="170" width="60" height="50" as="geometry" />
        </mxCell>
        <mxCell id="NlaGBxxUGiSn0cIbaI4j-10" value="Number A" style="shape=manualInput;whiteSpace=wrap;html=1;size=13;" vertex="1" parent="WIyWlLk6GJQsqaUBKTNV-1">
          <mxGeometry x="320" y="170" width="60" height="50" as="geometry" />
        </mxCell>
        <mxCell id="NlaGBxxUGiSn0cIbaI4j-11" value="Number A" style="shape=manualInput;whiteSpace=wrap;html=1;size=13;" vertex="1" parent="WIyWlLk6GJQsqaUBKTNV-1">
          <mxGeometry x="240" y="170" width="60" height="50" as="geometry" />
        </mxCell>
        <mxCell id="NlaGBxxUGiSn0cIbaI4j-12" value="Number A" style="shape=manualInput;whiteSpace=wrap;html=1;size=13;" vertex="1" parent="WIyWlLk6GJQsqaUBKTNV-1">
          <mxGeometry x="170" y="170" width="60" height="50" as="geometry" />
        </mxCell>
        <mxCell id="NlaGBxxUGiSn0cIbaI4j-15" value="" style="endArrow=classic;html=1;rounded=0;exitX=0.5;exitY=1;exitDx=0;exitDy=0;" edge="1" parent="WIyWlLk6GJQsqaUBKTNV-1" source="NlaGBxxUGiSn0cIbaI4j-9">
          <mxGeometry width="50" height="50" relative="1" as="geometry">
            <mxPoint x="380" y="320" as="sourcePoint" />
            <mxPoint x="430" y="270" as="targetPoint" />
          </mxGeometry>
        </mxCell>
        <mxCell id="NlaGBxxUGiSn0cIbaI4j-16" value="" style="endArrow=classic;html=1;rounded=0;exitX=0.5;exitY=1;exitDx=0;exitDy=0;" edge="1" parent="WIyWlLk6GJQsqaUBKTNV-1" source="NlaGBxxUGiSn0cIbaI4j-10">
          <mxGeometry width="50" height="50" relative="1" as="geometry">
            <mxPoint x="440" y="230" as="sourcePoint" />
            <mxPoint x="350" y="270" as="targetPoint" />
          </mxGeometry>
        </mxCell>
        <mxCell id="NlaGBxxUGiSn0cIbaI4j-17" value="" style="endArrow=classic;html=1;rounded=0;exitX=0.5;exitY=1;exitDx=0;exitDy=0;" edge="1" parent="WIyWlLk6GJQsqaUBKTNV-1" source="NlaGBxxUGiSn0cIbaI4j-11">
          <mxGeometry width="50" height="50" relative="1" as="geometry">
            <mxPoint x="360" y="230" as="sourcePoint" />
            <mxPoint x="270" y="270" as="targetPoint" />
            <Array as="points" />
          </mxGeometry>
        </mxCell>
        <mxCell id="NlaGBxxUGiSn0cIbaI4j-18" value="" style="endArrow=classic;html=1;rounded=0;exitX=0.5;exitY=1;exitDx=0;exitDy=0;" edge="1" parent="WIyWlLk6GJQsqaUBKTNV-1" source="NlaGBxxUGiSn0cIbaI4j-12">
          <mxGeometry width="50" height="50" relative="1" as="geometry">
            <mxPoint x="280" y="230" as="sourcePoint" />
            <mxPoint x="200" y="270" as="targetPoint" />
            <Array as="points" />
          </mxGeometry>
        </mxCell>
        <mxCell id="NlaGBxxUGiSn0cIbaI4j-19" value="Number B" style="shape=manualInput;whiteSpace=wrap;html=1;size=13;" vertex="1" parent="WIyWlLk6GJQsqaUBKTNV-1">
          <mxGeometry x="400" y="270" width="60" height="50" as="geometry" />
        </mxCell>
        <mxCell id="NlaGBxxUGiSn0cIbaI4j-21" value="Number B" style="shape=manualInput;whiteSpace=wrap;html=1;size=13;" vertex="1" parent="WIyWlLk6GJQsqaUBKTNV-1">
          <mxGeometry x="320" y="270" width="60" height="50" as="geometry" />
        </mxCell>
        <mxCell id="NlaGBxxUGiSn0cIbaI4j-22" value="Number B" style="shape=manualInput;whiteSpace=wrap;html=1;size=13;" vertex="1" parent="WIyWlLk6GJQsqaUBKTNV-1">
          <mxGeometry x="240" y="270" width="60" height="50" as="geometry" />
        </mxCell>
        <mxCell id="NlaGBxxUGiSn0cIbaI4j-23" value="Number B" style="shape=manualInput;whiteSpace=wrap;html=1;size=13;" vertex="1" parent="WIyWlLk6GJQsqaUBKTNV-1">
          <mxGeometry x="170" y="270" width="60" height="50" as="geometry" />
        </mxCell>
        <mxCell id="NlaGBxxUGiSn0cIbaI4j-26" value="" style="endArrow=none;html=1;rounded=0;exitX=0.5;exitY=1;exitDx=0;exitDy=0;" edge="1" parent="WIyWlLk6GJQsqaUBKTNV-1" source="WIyWlLk6GJQsqaUBKTNV-3">
          <mxGeometry width="50" height="50" relative="1" as="geometry">
            <mxPoint x="380" y="320" as="sourcePoint" />
            <mxPoint x="320" y="140" as="targetPoint" />
          </mxGeometry>
        </mxCell>
        <mxCell id="NlaGBxxUGiSn0cIbaI4j-27" value="end" style="rounded=1;whiteSpace=wrap;html=1;fontSize=12;glass=0;strokeWidth=1;shadow=0;" vertex="1" parent="WIyWlLk6GJQsqaUBKTNV-1">
          <mxGeometry x="240" y="520" width="60" height="40" as="geometry" />
        </mxCell>
        <mxCell id="NlaGBxxUGiSn0cIbaI4j-28" value="end" style="rounded=1;whiteSpace=wrap;html=1;fontSize=12;glass=0;strokeWidth=1;shadow=0;" vertex="1" parent="WIyWlLk6GJQsqaUBKTNV-1">
          <mxGeometry x="332" y="520" width="60" height="40" as="geometry" />
        </mxCell>
        <mxCell id="NlaGBxxUGiSn0cIbaI4j-29" value="end" style="rounded=1;whiteSpace=wrap;html=1;fontSize=12;glass=0;strokeWidth=1;shadow=0;" vertex="1" parent="WIyWlLk6GJQsqaUBKTNV-1">
          <mxGeometry x="430" y="520" width="60" height="40" as="geometry" />
        </mxCell>
        <mxCell id="NlaGBxxUGiSn0cIbaI4j-30" value="Answer" style="shape=display;whiteSpace=wrap;html=1;" vertex="1" parent="WIyWlLk6GJQsqaUBKTNV-1">
          <mxGeometry x="414" y="440" width="80" height="40" as="geometry" />
        </mxCell>
        <mxCell id="NlaGBxxUGiSn0cIbaI4j-31" value="Answer" style="shape=display;whiteSpace=wrap;html=1;" vertex="1" parent="WIyWlLk6GJQsqaUBKTNV-1">
          <mxGeometry x="320" y="440" width="80" height="40" as="geometry" />
        </mxCell>
        <mxCell id="NlaGBxxUGiSn0cIbaI4j-32" value="Answer" style="shape=display;whiteSpace=wrap;html=1;" vertex="1" parent="WIyWlLk6GJQsqaUBKTNV-1">
          <mxGeometry x="230" y="440" width="80" height="40" as="geometry" />
        </mxCell>
        <mxCell id="NlaGBxxUGiSn0cIbaI4j-33" value="Answer" style="shape=display;whiteSpace=wrap;html=1;" vertex="1" parent="WIyWlLk6GJQsqaUBKTNV-1">
          <mxGeometry x="140" y="440" width="80" height="40" as="geometry" />
        </mxCell>
        <mxCell id="NlaGBxxUGiSn0cIbaI4j-34" value="Answer=&lt;br&gt;numberA -&lt;span style=&quot;color: rgba(0, 0, 0, 0); font-family: monospace; font-size: 0px; text-align: start;&quot;&gt;%3CmxGraphModel%3E%3Croot%3E%3CmxCell%20id%3D%220%22%2F%3E%3CmxCell%20id%3D%221%22%20parent%3D%220%22%2F%3E%3CmxCell%20id%3D%222%22%20value%3D%22Answer%3D%26lt%3Bbr%26gt%3BnumberA%20%2B%20Number%20B%22%20style%3D%22whiteSpace%3Dwrap%3Bhtml%3D1%3Baspect%3Dfixed%3B%22%20vertex%3D%221%22%20parent%3D%221%22%3E%3CmxGeometry%20x%3D%22400%22%20y%3D%22330%22%20width%3D%2276%22%20height%3D%2276%22%20as%3D%22geometry%22%2F%3E%3C%2FmxCell%3E%3C%2Froot%3E%3C%2FmxGraphModel%3E&lt;/span&gt;&lt;br&gt;Number B" style="whiteSpace=wrap;html=1;aspect=fixed;" vertex="1" parent="WIyWlLk6GJQsqaUBKTNV-1">
          <mxGeometry x="240" y="340" width="76" height="76" as="geometry" />
        </mxCell>
        <mxCell id="NlaGBxxUGiSn0cIbaI4j-35" value="Answer=&lt;br&gt;numberA + Number B" style="whiteSpace=wrap;html=1;aspect=fixed;" vertex="1" parent="WIyWlLk6GJQsqaUBKTNV-1">
          <mxGeometry x="154" y="340" width="76" height="76" as="geometry" />
        </mxCell>
        <mxCell id="NlaGBxxUGiSn0cIbaI4j-36" value="Answer=&lt;br&gt;numberA *&lt;span style=&quot;color: rgba(0, 0, 0, 0); font-family: monospace; font-size: 0px; text-align: start;&quot;&gt;%3CmxGraphModel%3E%3Croot%3E%3CmxCell%20id%3D%220%22%2F%3E%3CmxCell%20id%3D%221%22%20parent%3D%220%22%2F%3E%3CmxCell%20id%3D%222%22%20value%3D%22Answer%3D%26lt%3Bbr%26gt%3BnumberA%20%2B%20Number%20B%22%20style%3D%22whiteSpace%3Dwrap%3Bhtml%3D1%3Baspect%3Dfixed%3B%22%20vertex%3D%221%22%20parent%3D%221%22%3E%3CmxGeometry%20x%3D%22400%22%20y%3D%22330%22%20width%3D%2276%22%20height%3D%2276%22%20as%3D%22geometry%22%2F%3E%3C%2FmxCell%3E%3C%2Froot%3E%3C%2FmxGraphModel%3E&lt;/span&gt;&lt;br&gt;Number B" style="whiteSpace=wrap;html=1;aspect=fixed;" vertex="1" parent="WIyWlLk6GJQsqaUBKTNV-1">
          <mxGeometry x="324" y="340" width="76" height="76" as="geometry" />
        </mxCell>
        <mxCell id="NlaGBxxUGiSn0cIbaI4j-37" value="Answer=&lt;br&gt;numberA %&lt;span style=&quot;color: rgba(0, 0, 0, 0); font-family: monospace; font-size: 0px; text-align: start;&quot;&gt;%3CmxGraphModel%3E%3Croot%3E%3CmxCell%20id%3D%220%22%2F%3E%3CmxCell%20id%3D%221%22%20parent%3D%220%22%2F%3E%3CmxCell%20id%3D%222%22%20value%3D%22Answer%3D%26lt%3Bbr%26gt%3BnumberA%20%2B%20Number%20B%22%20style%3D%22whiteSpace%3Dwrap%3Bhtml%3D1%3Baspect%3Dfixed%3B%22%20vertex%3D%221%22%20parent%3D%221%22%3E%3CmxGeometry%20x%3D%22400%22%20y%3D%22330%22%20width%3D%2276%22%20height%3D%2276%22%20as%3D%22geometry%22%2F%3E%3C%2FmxCell%3E%3C%2Froot%3E%3C%2FmxGraphModel%3E&lt;/span&gt;&lt;br&gt;Number B" style="whiteSpace=wrap;html=1;aspect=fixed;" vertex="1" parent="WIyWlLk6GJQsqaUBKTNV-1">
          <mxGeometry x="414" y="340" width="76" height="76" as="geometry" />
        </mxCell>
        <mxCell id="NlaGBxxUGiSn0cIbaI4j-39" value="" style="endArrow=classic;html=1;rounded=0;exitX=0.75;exitY=1;exitDx=0;exitDy=0;" edge="1" parent="WIyWlLk6GJQsqaUBKTNV-1" source="NlaGBxxUGiSn0cIbaI4j-19" target="NlaGBxxUGiSn0cIbaI4j-37">
          <mxGeometry width="50" height="50" relative="1" as="geometry">
            <mxPoint x="380" y="440" as="sourcePoint" />
            <mxPoint x="440" y="330" as="targetPoint" />
          </mxGeometry>
        </mxCell>
        <mxCell id="NlaGBxxUGiSn0cIbaI4j-40" value="" style="endArrow=classic;html=1;rounded=0;" edge="1" parent="WIyWlLk6GJQsqaUBKTNV-1" target="NlaGBxxUGiSn0cIbaI4j-36">
          <mxGeometry width="50" height="50" relative="1" as="geometry">
            <mxPoint x="350" y="320" as="sourcePoint" />
            <mxPoint x="457.41379310344837" y="350" as="targetPoint" />
          </mxGeometry>
        </mxCell>
        <mxCell id="NlaGBxxUGiSn0cIbaI4j-41" value="" style="endArrow=classic;html=1;rounded=0;exitX=0.5;exitY=1;exitDx=0;exitDy=0;" edge="1" parent="WIyWlLk6GJQsqaUBKTNV-1" source="NlaGBxxUGiSn0cIbaI4j-22">
          <mxGeometry width="50" height="50" relative="1" as="geometry">
            <mxPoint x="367.98" y="333" as="sourcePoint" />
            <mxPoint x="270" y="340" as="targetPoint" />
          </mxGeometry>
        </mxCell>
        <mxCell id="NlaGBxxUGiSn0cIbaI4j-42" value="" style="endArrow=classic;html=1;rounded=0;exitX=0.5;exitY=1;exitDx=0;exitDy=0;" edge="1" parent="WIyWlLk6GJQsqaUBKTNV-1" source="NlaGBxxUGiSn0cIbaI4j-23" target="NlaGBxxUGiSn0cIbaI4j-35">
          <mxGeometry width="50" height="50" relative="1" as="geometry">
            <mxPoint x="280" y="330" as="sourcePoint" />
            <mxPoint x="280" y="350" as="targetPoint" />
          </mxGeometry>
        </mxCell>
        <mxCell id="NlaGBxxUGiSn0cIbaI4j-43" value="" style="endArrow=classic;html=1;rounded=0;" edge="1" parent="WIyWlLk6GJQsqaUBKTNV-1" source="NlaGBxxUGiSn0cIbaI4j-35" target="NlaGBxxUGiSn0cIbaI4j-33">
          <mxGeometry width="50" height="50" relative="1" as="geometry">
            <mxPoint x="190" y="420" as="sourcePoint" />
            <mxPoint x="207.24137931034488" y="350" as="targetPoint" />
          </mxGeometry>
        </mxCell>
        <mxCell id="NlaGBxxUGiSn0cIbaI4j-44" value="" style="endArrow=classic;html=1;rounded=0;exitX=0.5;exitY=1;exitDx=0;exitDy=0;" edge="1" parent="WIyWlLk6GJQsqaUBKTNV-1" source="NlaGBxxUGiSn0cIbaI4j-34" target="NlaGBxxUGiSn0cIbaI4j-32">
          <mxGeometry width="50" height="50" relative="1" as="geometry">
            <mxPoint x="200" y="430" as="sourcePoint" />
            <mxPoint x="200" y="450" as="targetPoint" />
          </mxGeometry>
        </mxCell>
        <mxCell id="NlaGBxxUGiSn0cIbaI4j-45" value="" style="endArrow=classic;html=1;rounded=0;entryX=0;entryY=0;entryDx=40;entryDy=0;entryPerimeter=0;" edge="1" parent="WIyWlLk6GJQsqaUBKTNV-1" source="NlaGBxxUGiSn0cIbaI4j-36" target="NlaGBxxUGiSn0cIbaI4j-31">
          <mxGeometry width="50" height="50" relative="1" as="geometry">
            <mxPoint x="360" y="420" as="sourcePoint" />
            <mxPoint x="283.63636363636374" y="450" as="targetPoint" />
          </mxGeometry>
        </mxCell>
        <mxCell id="NlaGBxxUGiSn0cIbaI4j-46" value="" style="endArrow=classic;html=1;rounded=0;entryX=0;entryY=0;entryDx=40;entryDy=0;entryPerimeter=0;exitX=0.5;exitY=1;exitDx=0;exitDy=0;" edge="1" parent="WIyWlLk6GJQsqaUBKTNV-1" source="NlaGBxxUGiSn0cIbaI4j-37" target="NlaGBxxUGiSn0cIbaI4j-30">
          <mxGeometry width="50" height="50" relative="1" as="geometry">
            <mxPoint x="370" y="430" as="sourcePoint" />
            <mxPoint x="370" y="450" as="targetPoint" />
          </mxGeometry>
        </mxCell>
        <mxCell id="NlaGBxxUGiSn0cIbaI4j-47" value="" style="endArrow=classic;html=1;rounded=0;exitX=0.6;exitY=1.1;exitDx=0;exitDy=0;exitPerimeter=0;" edge="1" parent="WIyWlLk6GJQsqaUBKTNV-1" source="NlaGBxxUGiSn0cIbaI4j-30" target="NlaGBxxUGiSn0cIbaI4j-29">
          <mxGeometry width="50" height="50" relative="1" as="geometry">
            <mxPoint x="462" y="426" as="sourcePoint" />
            <mxPoint x="464" y="450" as="targetPoint" />
          </mxGeometry>
        </mxCell>
        <mxCell id="NlaGBxxUGiSn0cIbaI4j-49" value="" style="endArrow=classic;html=1;rounded=0;exitX=0;exitY=0;exitDx=40;exitDy=40;exitPerimeter=0;entryX=0.5;entryY=0;entryDx=0;entryDy=0;" edge="1" parent="WIyWlLk6GJQsqaUBKTNV-1" source="NlaGBxxUGiSn0cIbaI4j-31" target="NlaGBxxUGiSn0cIbaI4j-28">
          <mxGeometry width="50" height="50" relative="1" as="geometry">
            <mxPoint x="472" y="494" as="sourcePoint" />
            <mxPoint x="470.7142857142858" y="530" as="targetPoint" />
          </mxGeometry>
        </mxCell>
        <mxCell id="NlaGBxxUGiSn0cIbaI4j-50" value="" style="endArrow=classic;html=1;rounded=0;exitX=0;exitY=0;exitDx=40;exitDy=40;exitPerimeter=0;entryX=0.5;entryY=0;entryDx=0;entryDy=0;" edge="1" parent="WIyWlLk6GJQsqaUBKTNV-1" source="NlaGBxxUGiSn0cIbaI4j-32" target="NlaGBxxUGiSn0cIbaI4j-27">
          <mxGeometry width="50" height="50" relative="1" as="geometry">
            <mxPoint x="370" y="490" as="sourcePoint" />
            <mxPoint x="372" y="530" as="targetPoint" />
          </mxGeometry>
        </mxCell>
        <mxCell id="NlaGBxxUGiSn0cIbaI4j-51" value="" style="endArrow=classic;html=1;rounded=0;exitX=0;exitY=0;exitDx=40;exitDy=40;exitPerimeter=0;entryX=0.5;entryY=0;entryDx=0;entryDy=0;" edge="1" parent="WIyWlLk6GJQsqaUBKTNV-1" source="NlaGBxxUGiSn0cIbaI4j-33" target="WIyWlLk6GJQsqaUBKTNV-11">
          <mxGeometry width="50" height="50" relative="1" as="geometry">
            <mxPoint x="280" y="490" as="sourcePoint" />
            <mxPoint x="280" y="530" as="targetPoint" />
          </mxGeometry>
        </mxCell>
      </root>
    </mxGraphModel>
  </diagram>
</mxfile>
